# xmcd
# Track frame offsets:
# 150
# 13625
# 26833
# 39258
# 54259
# 63504
# 76768
# 109982
# 124568
# 138353
# 153020
# 167197
# 178830
# 190851
# 203124
# 213806
# 227593
# 241073
# 252400
# 264901
#
# Disc length: 3704 seconds
# Revision: 0
# Processed by: cddbd v1.5.2PL0 Copyright (c) Steve Scherf et al.
# Submitted via: VisiTrax 2.11.2.271 - For more info visit www.synapsa.com
#
DISCID=000e7614
DTITLE=Various Artist - The Blues Collection - Chains of Love
DYEAR=1900
DGENRE=
TTITLE0=Robert Johnson - Dust My Broom
TTITLE1=Dinah Washington - Embraceable You
TTITLE2=Memphis Slim - Old Taylor
TTITLE3=Elmore James - It Hurts Me, To
TTITLE4=Ella Fitzgerald - Love Come Back To Me
TTITLE5=BIllie Holliday - Love For Sale
TTITLE6=Big Joe Turner - Chains Of Love
TTITLE7=Jimmy Reed - I Was So Young
TTITLE8=Dinah Washington - Salty Papa Blues
TTITLE9=Billie Holliday - Travelin' Light
TTITLE10=Ella Fitzgerald - My Heart Belongs To Daddy
TTITLE11=Muddy Waters - Gypsy Woman
TTITLE12=Lighting' Hopkins - Shotgun Blues
TTITLE13=Sonny Boy Williamson - New Early In the Mornin'
TTITLE14=Elmore James - I Done Something Wrong
TTITLE15=Ella Fitzgerald - T'aint What You Do (It's The Way That You Do It)
TTITLE16=Billie Holliday - God Bless The Child
TTITLE17=Bog Joe Williams - Bye, Bye Baby Blues
TTITLE18=Jimmy Reed - Little Rain
TTITLE19=Dinah Washington - Beggin' Mama Blues
EXTD=
EXTT0=
EXTT1=
EXTT2=
EXTT3=
EXTT4=
EXTT5=
EXTT6=
EXTT7=
EXTT8=
EXTT9=
EXTT10=
EXTT11=
EXTT12=
EXTT13=
EXTT14=
EXTT15=
EXTT16=
EXTT17=
EXTT18=
EXTT19=
PLAYORDER=
